<svg width="31" height="30" viewBox="0 0 31 30" fill="none" xmlns="http://www.w3.org/2000/svg">
<path d="M26.8269 11.2499H25.0491L20.4019 3.12988L18.2285 4.36988L22.1659 11.2499H8.95276L12.8914 4.36988L10.7168 3.12988L6.06951 11.2499H4.29174C4.09931 11.2501 3.90951 11.2945 3.73707 11.3798C3.56462 11.465 3.41414 11.5888 3.29732 11.7415C3.18049 11.8941 3.10044 12.0716 3.06338 12.2601C3.02632 12.4487 3.03324 12.6432 3.08361 12.8286L6.58782 25.6586C6.73349 26.1871 7.04868 26.6534 7.48509 26.9859C7.92151 27.3185 8.45509 27.499 9.00409 27.4999H22.1158C23.24 27.4999 24.2341 26.7436 24.5321 25.6561L28.0363 12.8274C28.0872 12.6419 28.0946 12.4471 28.0576 12.2583C28.0207 12.0696 27.9406 11.8919 27.8235 11.7391C27.7064 11.5864 27.5555 11.4627 27.3826 11.3779C27.2097 11.293 27.0195 11.2492 26.8269 11.2499ZM22.1145 24.9999V26.2499V24.9999H9.00409L5.9318 13.7499H25.1868L22.1145 24.9999Z" fill="white"/>
<path d="M11.8035 16.25H14.3074V22.5H11.8035V16.25ZM16.8113 16.25H19.3152V22.5H16.8113V16.25Z" fill="white"/>
</svg>
