<svg width="20" height="19" viewBox="0 0 20 19" fill="none" xmlns="http://www.w3.org/2000/svg">
<path d="M9.99063 0C9.00017 0 8.03196 0.293245 7.20843 0.842652C6.3849 1.39206 5.74304 2.17295 5.36401 3.08658C4.98498 4.00021 4.88581 5.00555 5.07904 5.97545C5.27226 6.94536 5.74921 7.83627 6.44957 8.53553C7.14992 9.2348 8.04223 9.711 9.01365 9.90393C9.98507 10.0969 10.992 9.99784 11.907 9.6194C12.8221 9.24096 13.6042 8.6001 14.1545 7.77785C14.7047 6.95561 14.9984 5.98891 14.9984 5C14.9984 3.67392 14.4708 2.40215 13.5317 1.46447C12.5925 0.526784 11.3188 0 9.99063 0ZM9.99063 8C9.39635 8 8.81543 7.82405 8.32131 7.49441C7.82719 7.16476 7.44207 6.69623 7.21466 6.14805C6.98724 5.59987 6.92774 4.99667 7.04367 4.41473C7.15961 3.83279 7.44578 3.29824 7.86599 2.87868C8.2862 2.45912 8.82159 2.1734 9.40444 2.05764C9.98729 1.94189 10.5914 2.0013 11.1405 2.22836C11.6895 2.45542 12.1588 2.83994 12.4889 3.33329C12.8191 3.82664 12.9953 4.40666 12.9953 5C12.9953 5.79565 12.6788 6.55871 12.1153 7.12132C11.5518 7.68393 10.7875 8 9.99063 8ZM19.0047 19V18C19.0047 16.1435 18.266 14.363 16.9512 13.0503C15.6364 11.7375 13.8532 11 11.9938 11H7.9875C6.12808 11 4.34482 11.7375 3.03002 13.0503C1.71521 14.363 0.976562 16.1435 0.976562 18V19H2.97969V18C2.97969 16.6739 3.5073 15.4021 4.44644 14.4645C5.38559 13.5268 6.65935 13 7.9875 13H11.9938C13.3219 13 14.5957 13.5268 15.5348 14.4645C16.474 15.4021 17.0016 16.6739 17.0016 18V19H19.0047Z" fill="#252525"/>
</svg>
