<svg width="19" height="22" viewBox="0 0 19 22" fill="none" xmlns="http://www.w3.org/2000/svg">
<path d="M6.75 0.975098C6.57761 0.975098 6.41228 1.04358 6.29038 1.16548C6.16848 1.28738 6.1 1.45271 6.1 1.6251C6.1 1.79749 6.16848 1.96282 6.29038 2.08472C6.41228 2.20662 6.57761 2.2751 6.75 2.2751H11.95C12.1224 2.2751 12.2877 2.20662 12.4096 2.08472C12.5315 1.96282 12.6 1.79749 12.6 1.6251C12.6 1.45271 12.5315 1.28738 12.4096 1.16548C12.2877 1.04358 12.1224 0.975098 11.95 0.975098H6.75ZM16.7028 3.4828C16.6428 3.42072 16.5711 3.3712 16.4918 3.33713C16.4125 3.30307 16.3272 3.28513 16.2409 3.28438C16.1546 3.28363 16.069 3.30008 15.9891 3.33276C15.9092 3.36545 15.8367 3.41371 15.7756 3.47474C15.7146 3.53577 15.6663 3.60834 15.6337 3.68823C15.601 3.76811 15.5845 3.8537 15.5853 3.94001C15.586 4.02631 15.604 4.11161 15.638 4.19091C15.6721 4.27021 15.7216 4.34194 15.7837 4.4019L17.6219 6.2401C17.6819 6.30218 17.7536 6.3517 17.8329 6.38576C17.9122 6.41983 17.9975 6.43776 18.0838 6.43851C18.1701 6.43926 18.2557 6.42281 18.3356 6.39013C18.4155 6.35745 18.488 6.30918 18.5491 6.24815C18.6101 6.18712 18.6584 6.11455 18.691 6.03467C18.7237 5.95478 18.7402 5.86919 18.7394 5.78289C18.7387 5.69658 18.7207 5.61129 18.6867 5.53198C18.6526 5.45268 18.6031 5.38096 18.541 5.321L16.7028 3.4841V3.4828ZM9.35 6.1751C9.17761 6.1751 9.01228 6.24358 8.89038 6.36548C8.76848 6.48738 8.7 6.65271 8.7 6.8251V13.3251C8.7 13.4975 8.76848 13.6628 8.89038 13.7847C9.01228 13.9066 9.17761 13.9751 9.35 13.9751C9.52239 13.9751 9.68772 13.9066 9.80962 13.7847C9.93152 13.6628 10 13.4975 10 13.3251V6.8251C10 6.65271 9.93152 6.48738 9.80962 6.36548C9.68772 6.24358 9.52239 6.1751 9.35 6.1751ZM9.35 21.7751C10.545 21.7751 11.7284 21.5397 12.8324 21.0824C13.9365 20.6251 14.9397 19.9548 15.7847 19.1098C16.6297 18.2648 17.3 17.2616 17.7573 16.1575C18.2146 15.0535 18.45 13.8701 18.45 12.6751C18.45 11.4801 18.2146 10.2967 17.7573 9.19268C17.3 8.08861 16.6297 7.08544 15.7847 6.24043C14.9397 5.39541 13.9365 4.72511 12.8324 4.26779C11.7284 3.81048 10.545 3.5751 9.35 3.5751C6.93653 3.5751 4.62191 4.53384 2.91533 6.24043C1.20875 7.94701 0.25 10.2616 0.25 12.6751C0.25 15.0886 1.20875 17.4032 2.91533 19.1098C4.62191 20.8163 6.93653 21.7751 9.35 21.7751ZM9.35 20.4751C8.32569 20.4751 7.31141 20.2733 6.36507 19.8814C5.41873 19.4894 4.55886 18.9148 3.83457 18.1905C3.11027 17.4662 2.53573 16.6064 2.14374 15.66C1.75175 14.7137 1.55 13.6994 1.55 12.6751C1.55 11.6508 1.75175 10.6365 2.14374 9.69017C2.53573 8.74383 3.11027 7.88396 3.83457 7.15966C4.55886 6.43537 5.41873 5.86082 6.36507 5.46884C7.31141 5.07685 8.32569 4.8751 9.35 4.8751C11.4187 4.8751 13.4026 5.69688 14.8654 7.15966C16.3282 8.62245 17.15 10.6064 17.15 12.6751C17.15 14.7438 16.3282 16.7277 14.8654 18.1905C13.4026 19.6533 11.4187 20.4751 9.35 20.4751Z" fill="white"/>
</svg>
