<svg width="18" height="23" viewBox="0 0 18 23" fill="none" xmlns="http://www.w3.org/2000/svg">
<path d="M9.00001 22.75L2.14576 14.6664C2.05052 14.5451 1.95627 14.4229 1.86301 14.3C0.692181 12.7577 0.0596715 10.8739 0.0625095 8.9375C0.0625095 6.56713 1.00414 4.29384 2.68024 2.61773C4.35635 0.941627 6.62964 0 9.00001 0C11.3704 0 13.6437 0.941627 15.3198 2.61773C16.9959 4.29384 17.9375 6.56713 17.9375 8.9375C17.9403 10.873 17.3081 12.756 16.1378 14.2976L16.137 14.3C16.137 14.3 15.8933 14.6201 15.8567 14.6632L9.00001 22.75ZM3.15976 13.3209C3.16138 13.3209 3.34988 13.5712 3.39295 13.6248L9.00001 20.2378L14.6144 13.6159C14.6501 13.5712 14.8403 13.3193 14.8411 13.3185C15.7975 12.0584 16.3144 10.5195 16.3125 8.9375C16.3125 6.9981 15.5421 5.13814 14.1707 3.76678C12.7994 2.39542 10.9394 1.625 9.00001 1.625C7.06061 1.625 5.20065 2.39542 3.82929 3.76678C2.45793 5.13814 1.68751 6.9981 1.68751 8.9375C1.6858 10.5204 2.20327 12.0603 3.16057 13.3209H3.15976Z" fill="white"/>
</svg>
