<svg width="24" height="19" viewBox="0 0 24 19" fill="none" xmlns="http://www.w3.org/2000/svg">
<path d="M22.5625 0.4375H1.4375C0.988086 0.4375 0.625 0.800586 0.625 1.25V17.5C0.625 17.9494 0.988086 18.3125 1.4375 18.3125H22.5625C23.0119 18.3125 23.375 17.9494 23.375 17.5V1.25C23.375 0.800586 23.0119 0.4375 22.5625 0.4375ZM21.5469 3.25078V16.4844H2.45312V3.25078L1.75234 2.70488L2.7502 1.42266L3.83691 2.26816H20.1656L21.2523 1.42266L22.2502 2.70488L21.5469 3.25078ZM20.1656 2.26562L12 8.61328L3.83437 2.26562L2.74766 1.42012L1.7498 2.70234L2.45059 3.24824L11.124 9.99199C11.3735 10.1858 11.6803 10.291 11.9962 10.291C12.3121 10.291 12.6189 10.1858 12.8684 9.99199L21.5469 3.25078L22.2477 2.70488L21.2498 1.42266L20.1656 2.26562Z" fill="white"/>
</svg>
