<svg width="24" height="24" viewBox="0 0 24 24" fill="none" xmlns="http://www.w3.org/2000/svg">
<path d="M21.3749 9.825C21.3749 9.825 20.2499 10.875 18.3374 12.1125C17.8124 9.075 16.3499 5.325 13.4999 0.75C13.4999 0.75 12.5624 5.6625 9.44992 10.275C8.09992 8.175 7.49992 6.525 7.49992 6.525C-2.25008 16.3125 5.84992 23.25 10.9499 23.25C17.4749 23.25 23.2124 20.1 21.3749 9.825Z" fill="#FF9D33"/>
<path d="M17.5117 18.525C18.0742 17.2875 18.4867 15.675 18.5617 13.65C18.5617 13.65 17.7742 14.325 16.4242 15.1875C16.0492 13.1625 15.0367 10.6875 13.0492 7.61255C13.0492 7.61255 12.4117 10.875 10.2367 13.9875C9.29922 12.6 8.88672 11.475 8.88672 11.475C7.27422 14.025 6.63672 16.05 6.59922 17.6625C5.69922 17.325 5.13672 17.0625 5.13672 17.0625C6.67422 21.6375 9.86172 22.65 11.2867 22.65C13.8367 22.65 16.4242 21.9 18.9742 18.2625C18.9742 18.225 18.4117 18.375 17.5117 18.525Z" fill="#FFCE31"/>
<path d="M8.21156 16.4625C8.21156 16.4625 9.26156 17.8875 10.0491 17.55C10.0491 17.55 11.5491 15.1875 13.7241 13.875C13.7241 13.875 13.2741 17.475 13.7991 18.1125C14.4741 18.975 16.3116 17.175 16.3116 17.175C16.3116 19.3125 13.9866 21.975 11.8866 21.975C9.86156 21.975 6.93656 19.65 8.21156 16.4625Z" fill="#FFDF85"/>
<path d="M18.6747 6.7875C19.4622 5.6625 19.9872 4.4625 19.9872 4.4625C21.2997 6.6375 20.5122 7.95 19.9497 8.3625C19.1622 8.9625 17.7747 8.1 18.6747 6.7875ZM4.34973 6.4125C3.56223 5.1 3.48723 3.45 3.48723 3.45C1.61223 6.2625 2.32473 7.8375 2.96223 8.2875C3.78723 8.925 5.21223 7.95 4.34973 6.4125ZM8.69973 3.4875C8.81223 2.5875 8.43723 1.6875 8.43723 1.6875C10.1997 2.85 10.1997 3.825 9.97473 4.2375C9.63723 4.725 8.58723 4.5 8.69973 3.4875Z" fill="#FF9D33"/>
</svg>
