<svg width="24" height="24" viewBox="0 0 24 24" fill="none" xmlns="http://www.w3.org/2000/svg">
<g clip-path="url(#clip0_51_1577)">
<path d="M11.0119 11.0235C11.103 11.0236 11.1909 10.9906 11.2594 10.9305L19.7472 3.48905L19.2522 2.92505L10.7644 10.3658C10.7068 10.416 10.6658 10.4827 10.6471 10.5568C10.6284 10.631 10.6328 10.7091 10.6598 10.7806C10.6867 10.8522 10.7349 10.9138 10.7978 10.9572C10.8607 11.0006 10.9355 11.0238 11.0119 11.0235V11.0235Z" fill="#FC7272"/>
<path d="M7.641 24C12.2475 24 15 20.3775 15 16.875C15 15.8655 14.7585 14.7533 14.4015 14.031L17.793 12.3353C17.8552 12.3041 17.9075 12.2562 17.9441 12.197C17.9806 12.1378 18 12.0696 18 12V9H20.25L20.3348 8.9955C20.8343 8.96175 20.9835 8.80275 21 8.25V5.25H23.25C23.3467 5.25 23.4135 5.2605 23.4585 5.26725C23.5492 5.2815 23.7187 5.30775 23.8657 5.17575C24.0172 5.04075 24.0105 4.86975 24.0045 4.719C24.003 4.665 24 4.59375 24 4.5V1.10175C23.9998 0.809609 23.8837 0.52949 23.6771 0.322915C23.4705 0.116339 23.1904 0.000198668 22.8983 0L19.992 0C19.7248 0.000557176 19.4667 0.09749 19.2653 0.273L9.375 8.943C8.88825 8.8455 8.1525 8.71875 7.64025 8.71875C3.4275 8.71875 0 12.1463 0 16.359C0 20.5718 3.4275 24 7.641 24ZM7.641 9.46875C8.01675 9.46875 8.66025 9.55875 9.4065 9.71475C9.46337 9.727 9.52232 9.72571 9.5786 9.71098C9.63488 9.69626 9.68691 9.66852 9.7305 9.63L19.7587 0.8385C19.8233 0.781792 19.9061 0.750355 19.992 0.75H22.8983C23.0925 0.75 23.25 0.9075 23.25 1.10175V4.5H20.625C20.5255 4.5 20.4302 4.53951 20.3598 4.60984C20.2895 4.68016 20.25 4.77554 20.25 4.875V8.25H17.625C17.5255 8.25 17.4302 8.28951 17.3598 8.35983C17.2895 8.43016 17.25 8.52554 17.25 8.625V11.7682L13.707 13.5397C13.6584 13.564 13.6156 13.5986 13.5816 13.6411C13.5477 13.6835 13.5234 13.7329 13.5104 13.7857C13.4974 13.8385 13.4961 13.8935 13.5064 13.9468C13.5168 14.0002 13.5387 14.0507 13.5705 14.0947C13.9005 14.55 14.25 15.6802 14.25 16.875C14.25 20.0085 11.778 23.25 7.641 23.25C3.8415 23.25 0.75 20.1585 0.75 16.359C0.75 12.5595 3.8415 9.46875 7.641 9.46875V9.46875Z" fill="#FC7272"/>
<path d="M6.375 20.25C7.8225 20.25 9 19.0725 9 17.625C9 16.1775 7.8225 15 6.375 15C4.9275 15 3.75 16.1775 3.75 17.625C3.75 19.0725 4.9275 20.25 6.375 20.25ZM6.375 15.75C7.4085 15.75 8.25 16.5915 8.25 17.625C8.25 18.6585 7.4085 19.5 6.375 19.5C5.3415 19.5 4.5 18.6585 4.5 17.625C4.5 16.5915 5.3415 15.75 6.375 15.75Z" fill="#FC7272"/>
</g>
<defs>
<clipPath id="clip0_51_1577">
<rect width="24" height="24" fill="white"/>
</clipPath>
</defs>
</svg>
